<mxfile host="app.diagrams.net" modified="2024-04-21T12:49:52.432Z" agent="Mozilla/5.0 (Windows NT 10.0; Win64; x64) AppleWebKit/537.36 (KHTML, like Gecko) Chrome/123.0.0.0 Safari/537.36" etag="bNhAvniK2ZJCcfOhHEvH" version="24.2.7" type="github">
  <diagram name="Page-1" id="0783ab3e-0a74-02c8-0abd-f7b4e66b4bec">
    <mxGraphModel dx="1434" dy="-354" grid="1" gridSize="10" guides="1" tooltips="1" connect="1" arrows="1" fold="1" page="1" pageScale="1" pageWidth="850" pageHeight="1100" background="none" math="0" shadow="0">
      <root>
        <mxCell id="0" />
        <mxCell id="1" parent="0" />
        <mxCell id="Nt6edDYfGbVc_-nAVwtb-10" style="edgeStyle=orthogonalEdgeStyle;rounded=0;orthogonalLoop=1;jettySize=auto;html=1;entryX=0;entryY=0.5;entryDx=0;entryDy=0;" parent="1" source="Nt6edDYfGbVc_-nAVwtb-1" target="Nt6edDYfGbVc_-nAVwtb-2" edge="1">
          <mxGeometry relative="1" as="geometry" />
        </mxCell>
        <mxCell id="Nt6edDYfGbVc_-nAVwtb-14" value="Lodge REX" style="edgeLabel;html=1;align=center;verticalAlign=middle;resizable=0;points=[];" parent="Nt6edDYfGbVc_-nAVwtb-10" vertex="1" connectable="0">
          <mxGeometry relative="1" as="geometry">
            <mxPoint y="-15" as="offset" />
          </mxGeometry>
        </mxCell>
        <mxCell id="Nt6edDYfGbVc_-nAVwtb-1" value="REX in INIT" style="rounded=1;whiteSpace=wrap;html=1;shadow=0;comic=0;labelBackgroundColor=none;strokeWidth=1;fontFamily=Verdana;fontSize=12;align=center;arcSize=50;fillColor=#d5e8d4;strokeColor=#82b366;" parent="1" vertex="1">
          <mxGeometry x="220" y="1400" width="100" height="30" as="geometry" />
        </mxCell>
        <mxCell id="Nt6edDYfGbVc_-nAVwtb-15" value="" style="edgeStyle=orthogonalEdgeStyle;rounded=0;orthogonalLoop=1;jettySize=auto;html=1;" parent="1" source="Nt6edDYfGbVc_-nAVwtb-2" target="Nt6edDYfGbVc_-nAVwtb-3" edge="1">
          <mxGeometry relative="1" as="geometry" />
        </mxCell>
        <mxCell id="Nt6edDYfGbVc_-nAVwtb-2" value="REX to FINAL" style="rounded=1;whiteSpace=wrap;html=1;shadow=0;comic=0;labelBackgroundColor=none;strokeWidth=1;fontFamily=Verdana;fontSize=12;align=center;arcSize=50;fillColor=#f8cecc;strokeColor=#b85450;" parent="1" vertex="1">
          <mxGeometry x="410" y="1400" width="110.5" height="30" as="geometry" />
        </mxCell>
        <mxCell id="Nt6edDYfGbVc_-nAVwtb-16" value="" style="edgeStyle=orthogonalEdgeStyle;rounded=0;orthogonalLoop=1;jettySize=auto;html=1;" parent="1" source="Nt6edDYfGbVc_-nAVwtb-3" target="Nt6edDYfGbVc_-nAVwtb-4" edge="1">
          <mxGeometry relative="1" as="geometry" />
        </mxCell>
        <mxCell id="Nt6edDYfGbVc_-nAVwtb-17" value="&lt;div&gt;&lt;br&gt;&lt;/div&gt;Doc Review&lt;div&gt;&lt;div&gt;&amp;amp; Vet Review&lt;/div&gt;&lt;/div&gt;&lt;div&gt;Approved&lt;br&gt;&lt;/div&gt;" style="edgeLabel;html=1;align=center;verticalAlign=middle;resizable=0;points=[];" parent="Nt6edDYfGbVc_-nAVwtb-16" vertex="1" connectable="0">
          <mxGeometry x="-0.1069" y="1" relative="1" as="geometry">
            <mxPoint y="-34" as="offset" />
          </mxGeometry>
        </mxCell>
        <mxCell id="oSLybgnScJtVFjEnvtuM-1" style="edgeStyle=orthogonalEdgeStyle;rounded=0;orthogonalLoop=1;jettySize=auto;html=1;entryX=0.5;entryY=1;entryDx=0;entryDy=0;" edge="1" parent="1" source="Nt6edDYfGbVc_-nAVwtb-3" target="Nt6edDYfGbVc_-nAVwtb-1">
          <mxGeometry relative="1" as="geometry">
            <Array as="points">
              <mxPoint x="655" y="1490" />
              <mxPoint x="270" y="1490" />
            </Array>
          </mxGeometry>
        </mxCell>
        <mxCell id="oSLybgnScJtVFjEnvtuM-2" value="Doc Review&lt;div&gt;Or Vet Review&lt;/div&gt;&lt;div&gt;Rejected&lt;/div&gt;" style="edgeLabel;html=1;align=center;verticalAlign=middle;resizable=0;points=[];" vertex="1" connectable="0" parent="oSLybgnScJtVFjEnvtuM-1">
          <mxGeometry x="0.0738" relative="1" as="geometry">
            <mxPoint x="-4" y="30" as="offset" />
          </mxGeometry>
        </mxCell>
        <mxCell id="Nt6edDYfGbVc_-nAVwtb-3" value="REX to REVIEW" style="rounded=1;whiteSpace=wrap;html=1;shadow=0;comic=0;labelBackgroundColor=none;strokeWidth=1;fontFamily=Verdana;fontSize=12;align=center;arcSize=50;fillColor=#d5e8d4;strokeColor=#82b366;" parent="1" vertex="1">
          <mxGeometry x="600" y="1400" width="110.5" height="30" as="geometry" />
        </mxCell>
        <mxCell id="Nt6edDYfGbVc_-nAVwtb-18" value="" style="edgeStyle=orthogonalEdgeStyle;rounded=0;orthogonalLoop=1;jettySize=auto;html=1;" parent="1" source="Nt6edDYfGbVc_-nAVwtb-4" target="Nt6edDYfGbVc_-nAVwtb-5" edge="1">
          <mxGeometry relative="1" as="geometry" />
        </mxCell>
        <mxCell id="Nt6edDYfGbVc_-nAVwtb-19" value="Release to print" style="edgeLabel;html=1;align=center;verticalAlign=middle;resizable=0;points=[];" parent="Nt6edDYfGbVc_-nAVwtb-18" vertex="1" connectable="0">
          <mxGeometry x="-0.2555" y="1" relative="1" as="geometry">
            <mxPoint x="14" y="-24" as="offset" />
          </mxGeometry>
        </mxCell>
        <mxCell id="Nt6edDYfGbVc_-nAVwtb-4" value="REX to CTRD" style="rounded=1;whiteSpace=wrap;html=1;shadow=0;comic=0;labelBackgroundColor=none;strokeWidth=1;fontFamily=Verdana;fontSize=12;align=center;arcSize=50;fillColor=#d5e8d4;strokeColor=#82b366;" parent="1" vertex="1">
          <mxGeometry x="811" y="1400" width="110.5" height="30" as="geometry" />
        </mxCell>
        <mxCell id="Nt6edDYfGbVc_-nAVwtb-5" value="REX to COMP" style="rounded=1;whiteSpace=wrap;html=1;shadow=0;comic=0;labelBackgroundColor=none;strokeWidth=1;fontFamily=Verdana;fontSize=12;align=center;arcSize=50;fillColor=#d5e8d4;strokeColor=#82b366;" parent="1" vertex="1">
          <mxGeometry x="1020" y="1400" width="110.5" height="30" as="geometry" />
        </mxCell>
        <mxCell id="Nt6edDYfGbVc_-nAVwtb-8" style="edgeStyle=orthogonalEdgeStyle;rounded=0;orthogonalLoop=1;jettySize=auto;html=1;exitX=1;exitY=0.5;exitDx=0;exitDy=0;" parent="1" source="Nt6edDYfGbVc_-nAVwtb-13" target="Nt6edDYfGbVc_-nAVwtb-1" edge="1">
          <mxGeometry relative="1" as="geometry">
            <mxPoint x="210" y="1260" as="sourcePoint" />
          </mxGeometry>
        </mxCell>
        <mxCell id="Nt6edDYfGbVc_-nAVwtb-9" value="Save REX" style="edgeLabel;html=1;align=center;verticalAlign=middle;resizable=0;points=[];" parent="Nt6edDYfGbVc_-nAVwtb-8" vertex="1" connectable="0">
          <mxGeometry x="-0.1575" y="3" relative="1" as="geometry">
            <mxPoint x="2" y="-12" as="offset" />
          </mxGeometry>
        </mxCell>
        <mxCell id="Nt6edDYfGbVc_-nAVwtb-13" value="" style="ellipse;whiteSpace=wrap;html=1;rounded=0;shadow=0;comic=0;labelBackgroundColor=none;strokeWidth=1;fillColor=#000000;fontFamily=Verdana;fontSize=12;align=center;" parent="1" vertex="1">
          <mxGeometry x="110" y="1405" width="20" height="20" as="geometry" />
        </mxCell>
        <mxCell id="oSLybgnScJtVFjEnvtuM-3" value="&lt;div&gt;REX Number created,&lt;/div&gt;&lt;div&gt;Draft REX status INIT&lt;/div&gt;Draft&amp;nbsp;Extra Certificate,&lt;div&gt;ICS Record submitted,&lt;/div&gt;&lt;div&gt;EDN received,&lt;/div&gt;&lt;div&gt;Export Permit number created&lt;/div&gt;" style="shape=note2;boundedLbl=1;whiteSpace=wrap;html=1;size=25;verticalAlign=top;align=center;" vertex="1" parent="1">
          <mxGeometry x="210" y="1250" width="165" height="120" as="geometry" />
        </mxCell>
        <mxCell id="oSLybgnScJtVFjEnvtuM-4" value="Extra Certificate in Printed status,&lt;div&gt;REX in status COMP&amp;nbsp;&lt;br&gt;&lt;div&gt;&lt;br&gt;&lt;/div&gt;&lt;/div&gt;" style="shape=note2;boundedLbl=1;whiteSpace=wrap;html=1;size=25;verticalAlign=top;align=center;" vertex="1" parent="1">
          <mxGeometry x="1020" y="1275" width="190" height="70" as="geometry" />
        </mxCell>
      </root>
    </mxGraphModel>
  </diagram>
</mxfile>
